<?xml version="1.0" encoding="UTF-8" standalone="no"?>
<!-- Created with Inkscape (http://www.inkscape.org/) -->

<svg
   xmlns:dc="http://purl.org/dc/elements/1.1/"
   xmlns:cc="http://creativecommons.org/ns#"
   xmlns:rdf="http://www.w3.org/1999/02/22-rdf-syntax-ns#"
   xmlns:svg="http://www.w3.org/2000/svg"
   xmlns="http://www.w3.org/2000/svg"
   xmlns:xlink="http://www.w3.org/1999/xlink"
   xmlns:sodipodi="http://sodipodi.sourceforge.net/DTD/sodipodi-0.dtd"
   xmlns:inkscape="http://www.inkscape.org/namespaces/inkscape"
   version="1.0"
   width="256"
   height="256"
   id="svg2424"
   inkscape:version="0.92.2 2405546, 2018-03-11"
   sodipodi:docname="logo.svg"
   inkscape:export-filename="/home/yeison/.config/qtile/logo.png"
   inkscape:export-xdpi="138.66466"
   inkscape:export-ydpi="138.66466">
  <metadata
     id="metadata34">
    <rdf:RDF>
      <cc:Work
         rdf:about="">
        <dc:format>image/svg+xml</dc:format>
        <dc:type
           rdf:resource="http://purl.org/dc/dcmitype/StillImage" />
        <dc:title />
      </cc:Work>
    </rdf:RDF>
  </metadata>
  <sodipodi:namedview
     pagecolor="#ffffff"
     bordercolor="#666666"
     borderopacity="1"
     objecttolerance="10"
     gridtolerance="10"
     guidetolerance="10"
     inkscape:pageopacity="0"
     inkscape:pageshadow="2"
     inkscape:window-width="1912"
     inkscape:window-height="1011"
     id="namedview32"
     showgrid="false"
     fit-margin-top="0"
     fit-margin-left="0"
     fit-margin-right="0"
     fit-margin-bottom="0"
     inkscape:zoom="0.87852575"
     inkscape:cx="241.93142"
     inkscape:cy="181.11917"
     inkscape:window-x="0"
     inkscape:window-y="0"
     inkscape:window-maximized="0"
     inkscape:current-layer="g2424" />
  <defs
     id="defs2426">
    <linearGradient
       x1="112.49854"
       y1="6.1372099"
       x2="112.49853"
       y2="129.3468"
       id="path1082_2_"
       gradientUnits="userSpaceOnUse"
       gradientTransform="translate(287,-83)">
      <stop
         id="stop193"
         style="stop-color:#ffffff;stop-opacity:0"
         offset="0" />
      <stop
         id="stop195"
         style="stop-color:#ffffff;stop-opacity:0.27450982"
         offset="1" />
      <midPointStop
         offset="0"
         style="stop-color:#FFFFFF"
         id="midPointStop197" />
      <midPointStop
         offset="0.5"
         style="stop-color:#FFFFFF"
         id="midPointStop199" />
      <midPointStop
         offset="1"
         style="stop-color:#000000"
         id="midPointStop201" />
    </linearGradient>
    <linearGradient
       x1="541.33502"
       y1="104.50665"
       x2="606.91248"
       y2="303.14029"
       id="linearGradient2544"
       xlink:href="#path1082_2_"
       gradientUnits="userSpaceOnUse"
       gradientTransform="matrix(-0.3937741,0,0,0.393752,357.51969,122.00151)" />
    <linearGradient
       id="linearGradient3388">
      <stop
         id="stop3390"
         style="stop-color:#000000;stop-opacity:0"
         offset="0" />
      <stop
         id="stop3392"
         style="stop-color:#000000;stop-opacity:0.37113401"
         offset="1" />
    </linearGradient>
    <linearGradient
       x1="490.72305"
       y1="237.72447"
       x2="490.72305"
       y2="183.9644"
       id="linearGradient4416"
       xlink:href="#linearGradient3388"
       gradientUnits="userSpaceOnUse"
       gradientTransform="matrix(0.749107,0,0,0.749107,-35.459862,91.44108)" />
  </defs>
  <g
     transform="translate(367.53408,-102.61104)"
     id="layer1">
    <g
       transform="matrix(0.8746356,0,0,0.8746356,-66.723044,20.473063)"
       id="g2424">
      <rect
         style="opacity:1;fill:#ff0000;fill-opacity:1;stroke:none;stroke-width:1.73462021;stroke-linecap:round;stroke-miterlimit:4;stroke-dasharray:none;stroke-dashoffset:0;stroke-opacity:1"
         id="rect8443"
         width="292.69333"
         height="292.69333"
         x="-343.92728"
         y="93.911079" />
      <g
         id="g840"
         transform="matrix(0.66268173,0,0,0.66268173,-278.75892,131.9357)">
        <path
           style="fill:#00ff00;fill-opacity:1;stroke-width:1.55844688"
           d="m 476.77344,-145.26758 -0.002,0.002 c -2.57339,0.0816 -5.34414,1.03415 -8.48828,3.51367 -7.70652,-2.97196 -15.18301,-4.00458 -21.86718,2.04687 -10.3216,-1.3387 -13.67693,1.42441 -16.21875,4.65039 -2.26599,-0.0468 -16.95424,-2.33011 -23.69141,7.71875 -16.92785,-2.0026 -22.2772,9.95557 -16.21484,21.10938 -3.4582,5.3517 -7.0403,10.64099 1.04492,20.845701 -2.85975,5.682097 -1.08678,11.846355 5.65039,19.30664 -1.77663,7.990157 1.71669,13.62627 7.98633,18.019531 -0.75003,6.987257 3.5541,12.095428 7.63086,15.470704 l -60.9629,107.050781 60.96485,-107.046875 c 2.30078,1.904441 4.53052,3.261323 5.73633,4.078125 1.28416,6.369372 3.95982,12.382469 16.75,15.705078 2.11013,9.4940585 9.79553,11.1333049 17.24023,13.125 -24.6032,14.301867 -45.70002,33.118121 -45.55664,79.287109 l -3.60547,6.427735 c -28.211,17.155381 -53.59287,72.297421 -13.90234,117.115231 2.5917,14.02914 6.94132,24.10557 10.8125,35.25782 5.78963,44.93937 43.57709,65.98186 53.54492,68.4707 14.60421,11.12419 30.15944,21.67939 51.21094,29.07422 19.84058,20.46396 41.33707,28.26442 62.95117,28.25195 0.31792,0 44.0684,-7.78643 63.91211,-28.25195 21.04838,-7.39483 36.60361,-17.95003 51.21094,-29.07422 9.96471,-2.48884 47.75138,-23.53133 53.54101,-68.4707 3.87118,-11.15225 8.21925,-21.22868 10.8125,-35.25782 39.68741,-44.82249 14.30906,-99.96571 -13.90039,-117.121091 l -3.61133,-6.429687 C 729.89533,33.443108 708.79656,14.62725 684.19336,0.32226562 691.6365,-1.6694295 699.32657,-3.3086763 701.43359,-12.802734 c 12.79018,-3.324168 15.4674,-9.335706 16.75,-15.705078 3.34443,-2.264425 14.54149,-8.62023 13.3711,-19.552735 6.26651,-4.393262 9.76256,-10.030932 7.98437,-18.019531 6.73873,-7.460285 8.51014,-13.624938 5.65039,-19.308594 8.08834,-10.198476 4.5004,-15.486188 1.04688,-20.837888 6.05924,-11.15381 0.71143,-23.11549 -16.22266,-21.11133 -6.73249,-10.04887 -21.41919,-7.76746 -23.6914,-7.7207 -2.54027,-3.22443 -5.89325,-5.98715 -16.21485,-4.64844 -6.68418,-6.05145 -14.1595,-5.02039 -21.86914,-2.04688 -9.15432,-7.2234 -15.21135,-1.43375 -22.13086,0.75586 -11.08367,-3.62183 -13.61924,1.34003 -19.06445,3.36133 -12.08732,-2.55429 -15.75999,3.00589 -21.55274,8.875 l -6.74218,-0.13476 c -18.23071,10.74393 -27.28765,32.621825 -30.49805,43.869136 -3.2104,-11.248869 -12.24701,-33.126766 -30.47461,-43.869136 l -6.74023,0.13476 c -5.8021,-5.86911 -9.47519,-11.42929 -21.5625,-8.875 -5.44678,-2.0213 -7.97143,-6.98316 -19.06446,-3.36133 -4.54131,-1.43688 -8.71786,-4.42226 -13.63476,-4.26953 z m 183.42383,12.90625 c -2.53092,3.12936 -6.06955,6.18591 -2.31836,9.78125 5.17092,-3.27741 10.37334,-6.55254 22.65234,-8.88086 -2.7678,3.13092 -8.48863,6.26361 -5.01953,9.39453 6.49093,-2.51689 13.67457,-4.34455 21.62109,-5.40429 -3.80572,3.17767 -6.97978,6.29116 -3.86133,8.75195 6.94756,-2.16936 16.51691,-5.09306 25.86914,-2.57617 l -5.91992,6.05078 c -0.6561,0.80883 13.84834,0.62967 23.42188,0.77148 -3.49404,4.92781 -7.05619,9.68412 -9.13672,18.146488 0.94909,0.975588 5.69523,0.434807 10.16797,0 -4.58651,9.804189 -12.55484,12.279271 -14.41406,16.47461 2.80208,2.153773 6.68956,1.591893 10.93945,0.126953 -3.30235,6.907036 -10.22947,11.64036 -15.70117,17.246093 1.3839,0.997406 3.79926,1.590783 9.52343,0.900391 -5.0556,5.456123 -11.16335,10.444477 -18.40234,14.929687 1.28104,1.503902 5.68837,1.443229 9.7793,1.542969 -6.55795,6.515867 -14.99753,9.895851 -22.90821,14.158203 3.94287,2.735075 6.76254,2.095997 9.78125,2.058594 -5.59326,4.66599 -15.10773,7.094043 -23.93945,9.910156 1.68001,2.64936 3.35856,3.374203 6.94922,4.119141 -9.34601,5.2504075 -22.73365,2.849558 -26.50977,5.5332031 0.91014,2.6384506 3.48145,4.3572445 6.5625,5.7910157 -15.04836,0.8867562 -56.20293,-0.5564526 -64.09179,-32.1757818 15.40242,-17.182023 43.51862,-37.34621 91.87304,-62.283203 -37.62324,12.784832 -71.56973,29.824423 -99.98046,53.275391 -33.40687,-15.790184 -10.37871,-55.61573 5.91796,-71.42773 0.82754,4.17663 1.76294,6.81452 2.83204,7.59375 5.30651,-5.77561 9.64237,-11.68868 16.47461,-17.2461 0.0218,3.26339 -1.62224,6.80635 2.44531,9.39649 3.66235,-5.00262 8.61357,-9.46728 15.18554,-13.25586 -3.1652,5.54183 -0.54517,7.22628 1.15821,9.52343 5.01975,-4.36988 9.79009,-8.79797 19.04883,-12.22656 z m -182.76954,0.004 c 9.25874,3.42858 14.02712,7.85668 19.04688,12.22656 1.70182,-2.29715 4.32497,-3.98355 1.1582,-9.52539 6.57353,3.78858 11.5232,8.2552 15.18555,13.25781 4.06755,-2.59014 2.42349,-6.13154 2.44531,-9.39648 6.83223,5.55742 11.1681,11.47205 16.47461,17.24609 1.0691,-0.77922 2.0045,-3.41867 2.83203,-7.59375 16.29668,15.81045 39.32679,55.637552 5.91992,71.427736 -28.41493,-23.43535 -62.34943,-40.474689 -99.95312,-53.257812 48.33487,24.923874 76.44033,45.087798 91.83984,62.261718 -7.88885,31.6193292 -49.04343,33.062538 -64.09179,32.1757818 3.08105,-1.4337712 5.65276,-3.1525651 6.56445,-5.7910157 -3.77612,-2.6836451 -17.16611,-0.2827956 -26.51367,-5.5332031 3.59066,-0.744938 5.27077,-1.469781 6.94922,-4.119141 -8.83016,-2.816113 -18.34268,-5.244166 -23.9375,-9.910156 3.01871,0.0374 5.83838,0.676481 9.78125,-2.058594 -7.90912,-4.262352 -16.35026,-7.642336 -22.90821,-14.158203 4.08937,-0.09974 8.49865,-0.03907 9.78125,-1.542969 -7.23898,-4.48521 -13.34869,-9.473564 -18.40429,-14.929687 5.72261,0.690392 8.14149,0.09701 9.52539,-0.900391 -5.47327,-5.605733 -12.40078,-10.339057 -15.70313,-17.246093 4.24833,1.46494 8.13737,2.02682 10.93946,-0.126953 -1.85923,-4.195339 -9.826,-6.670421 -14.41407,-16.47461 4.4743,0.434807 9.21888,0.975588 10.16797,0 -2.07585,-8.459248 -5.63877,-13.216718 -9.13281,-18.144528 9.57354,-0.14182 24.07993,0.0373 23.42383,-0.77149 l -5.92188,-6.04687 c 9.35224,-2.51845 18.92159,0.40291 25.86914,2.57226 3.11845,-2.46078 -0.0556,-5.57232 -3.86133,-8.75 7.94808,1.06131 15.12861,2.88741 21.6211,5.4043 3.46754,-3.13092 -2.25173,-6.26361 -5.01953,-9.39453 12.279,2.32832 17.48102,5.60344 22.65039,8.88086 3.75118,-3.59534 0.21646,-6.65189 -2.31446,-9.78125 z m 88.14258,130.2421856 c 0.83141,-0.018781 1.66379,-0.017815 2.49805,0.00391 23.68839,-0.2602607 53.02079,17.6744214 52.90234,34.5742194 -0.10285,14.915895 -20.59916,26.99081 -52.71875,26.761718 -31.45413,-0.375585 -52.63574,-15.173916 -52.5625,-29.626953 0.0604,-11.523886 24.10719,-31.1306877 49.88086,-31.7128907 z M 487.45703,7.9433594 c 5.29569,-0.098624 10.76982,0.3135885 16.36133,1.2578125 C 520.29894,11.970532 424.84227,95.320393 423.37109,76.726562 422.05654,34.290054 450.38724,8.6337239 487.45703,7.9433594 Z m 156.30664,1.4238281 c 37.0683,0.6902585 65.39854,26.3420135 64.08399,68.7812505 -1.47118,18.595388 -96.92433,-64.756031 -80.44532,-67.525391 5.59113,-0.9440294 11.06586,-1.3544678 16.36133,-1.2558595 z M 625.51562,61.109375 c 19.27422,-0.215299 39.63513,10.651485 52.46876,30.072266 18.66863,28.249969 14.34225,63.901059 -9.66407,79.628909 -24.00631,15.7294 -58.60089,5.57809 -77.26953,-22.67188 -18.66708,-28.24841 -14.34069,-63.901058 9.66406,-79.628904 7.50246,-4.914952 16.03978,-7.302528 24.80078,-7.400391 z m -114.39257,2.845703 c 8.76082,0.09782 17.29684,2.485439 24.79883,7.400391 24.00631,15.729404 28.33465,51.380491 9.66601,79.628911 -18.66863,28.24996 -53.26321,38.40167 -77.26953,22.67382 -24.00632,-15.7294 -28.33309,-51.3805 -9.66602,-79.628903 12.83469,-19.421852 33.1969,-30.289414 52.47071,-30.074219 z M 713.16016,95.34375 c 0.72708,-0.01204 1.49463,0.08762 2.30468,0.304688 43.0069,24.558002 35.53733,79.203992 12.33985,97.863282 -20.42988,9.07508 -37.18407,-97.794691 -14.64453,-98.16797 z m -294.91602,1.423828 c 22.53688,0.371588 5.7873,107.235232 -14.64258,98.160152 -23.19748,-18.65772 -30.66901,-73.29785 12.33789,-97.857418 0.80996,-0.217111 1.57769,-0.314721 2.30469,-0.302734 z m 150.89648,73.500002 c 31.99805,-0.15585 58.07232,23.6365 58.24219,53.14258 v 0.5625 c 0.16831,29.50607 -25.63634,53.55274 -57.63281,53.70703 -31.99803,0.15584 -58.07388,-23.63846 -58.24219,-53.14453 a 33.849466,33.849466 0 0 1 0,-0.5625 c -0.16831,-29.50452 25.63478,-53.54924 57.63281,-53.70508 z m 128.36133,20.16601 c 4.52559,-0.11802 8.76033,1.153 12.58008,4.10743 10.28575,10.24834 16.3188,48.84291 -1.6875,71.95312 -24.79801,34.40895 -58.37042,35.74851 -70.87695,26.16406 -13.07849,-12.33666 -3.094,-50.6386 14.83594,-71.63867 v -0.008 c 15.38654,-17.37357 31.57168,-30.22404 45.14843,-30.57813 z m -261.89257,8.17969 c 14.93381,-0.30606 33.26349,11.49528 48.12109,28.73438 h -0.002 c 16.57096,19.9637 24.12653,55.03861 10.29687,65.3789 -13.08316,7.89354 -44.8556,4.64141 -67.4375,-27.80078 -15.2307,-27.22295 -13.26828,-54.92429 -2.57422,-63.0625 3.49808,-2.13069 7.41423,-3.1643 11.59571,-3.25 z m 138.5371,95.58203 c 22.60975,0.1393 50.06266,8.28096 50.1211,18.86914 0.38649,10.96524 -28.32422,35.74213 -56.11133,35.26367 -28.77828,1.2421 -56.99631,-23.57275 -56.62695,-32.17382 -0.43169,-12.61096 35.03945,-22.45709 58.16992,-21.87891 1.45471,-0.0635 2.93995,-0.0894 4.44726,-0.0801 z"
           transform="matrix(0.64166448,0,0,0.64166448,-236.63579,93.217213)"
           id="path823"
           inkscape:connector-curvature="0" />
      </g>
    </g>
  </g>
</svg>
