<?xml version="1.0" encoding="UTF-8" standalone="no"?>
<!-- Created with Inkscape (http://www.inkscape.org/) -->

<svg
   xmlns:dc="http://purl.org/dc/elements/1.1/"
   xmlns:cc="http://creativecommons.org/ns#"
   xmlns:rdf="http://www.w3.org/1999/02/22-rdf-syntax-ns#"
   xmlns:svg="http://www.w3.org/2000/svg"
   xmlns="http://www.w3.org/2000/svg"
   xmlns:xlink="http://www.w3.org/1999/xlink"
   xmlns:sodipodi="http://sodipodi.sourceforge.net/DTD/sodipodi-0.dtd"
   xmlns:inkscape="http://www.inkscape.org/namespaces/inkscape"
   version="1.0"
   width="480"
   height="320"
   id="svg2424"
   sodipodi:docname="wallpaper.svg"
   inkscape:version="0.92.2 2405546, 2018-03-11">
  <metadata
     id="metadata34">
    <rdf:RDF>
      <cc:Work
         rdf:about="">
        <dc:format>image/svg+xml</dc:format>
        <dc:type
           rdf:resource="http://purl.org/dc/dcmitype/StillImage" />
        <dc:title />
      </cc:Work>
    </rdf:RDF>
  </metadata>
  <sodipodi:namedview
     pagecolor="#000000"
     bordercolor="#666666"
     borderopacity="1"
     objecttolerance="10"
     gridtolerance="10"
     guidetolerance="10"
     inkscape:pageopacity="0"
     inkscape:pageshadow="2"
     inkscape:window-width="1912"
     inkscape:window-height="1011"
     id="namedview32"
     showgrid="false"
     fit-margin-top="0"
     fit-margin-left="0"
     fit-margin-right="0"
     fit-margin-bottom="0"
     inkscape:showpageshadow="false"
     inkscape:zoom="1.4142136"
     inkscape:cx="292.73186"
     inkscape:cy="55.728016"
     inkscape:window-x="0"
     inkscape:window-y="0"
     inkscape:window-maximized="0"
     inkscape:current-layer="svg2424"
     inkscape:snap-bbox="true"
     inkscape:bbox-paths="true"
     inkscape:bbox-nodes="true"
     inkscape:snap-bbox-edge-midpoints="true"
     inkscape:snap-bbox-midpoints="true"
     inkscape:snap-global="false"
     showguides="false" />
  <defs
     id="defs2426">
    <linearGradient
       x1="112.49854"
       y1="6.1372099"
       x2="112.49853"
       y2="129.3468"
       id="path1082_2_"
       gradientUnits="userSpaceOnUse"
       gradientTransform="translate(287,-83)">
      <stop
         id="stop193"
         style="stop-color:#ffffff;stop-opacity:0"
         offset="0" />
      <stop
         id="stop195"
         style="stop-color:#ffffff;stop-opacity:0.27450982"
         offset="1" />
      <midPointStop
         offset="0"
         style="stop-color:#FFFFFF"
         id="midPointStop197" />
      <midPointStop
         offset="0.5"
         style="stop-color:#FFFFFF"
         id="midPointStop199" />
      <midPointStop
         offset="1"
         style="stop-color:#000000"
         id="midPointStop201" />
    </linearGradient>
    <linearGradient
       x1="541.33502"
       y1="104.50665"
       x2="606.91248"
       y2="303.14029"
       id="linearGradient2544"
       xlink:href="#path1082_2_"
       gradientUnits="userSpaceOnUse"
       gradientTransform="matrix(-0.3937741,0,0,0.393752,357.51969,122.00151)" />
    <linearGradient
       id="linearGradient3388">
      <stop
         id="stop3390"
         style="stop-color:#000000;stop-opacity:0"
         offset="0" />
      <stop
         id="stop3392"
         style="stop-color:#000000;stop-opacity:0.37113401"
         offset="1" />
    </linearGradient>
    <linearGradient
       x1="490.72305"
       y1="237.72447"
       x2="490.72305"
       y2="183.9644"
       id="linearGradient4416"
       xlink:href="#linearGradient3388"
       gradientUnits="userSpaceOnUse"
       gradientTransform="matrix(0.749107,0,0,0.749107,-35.459862,91.44108)" />
    <style
       id="style839">.cls-1,.cls-7,.cls-9{fill:none;}.cls-2{fill:#fff;}.cls-3{fill:#825ca3;}.cls-4{fill:#159cd8;}.cls-5{fill:#a7a9ac;}.cls-6{fill:#505050;}.cls-7{stroke:#825ca3;stroke-width:2px;}.cls-7,.cls-9{stroke-miterlimit:10;}.cls-8{clip-path:url(#clip-path);}.cls-9{stroke:#e5e5e6;stroke-width:1.41px;}.cls-10{clip-path:url(#clip-path-2);}.cls-11{clip-path:url(#clip-path-3);}.cls-12{clip-path:url(#clip-path-4);}.cls-13{clip-path:url(#clip-path-5);}.cls-14{clip-path:url(#clip-path-6);}</style>
    <clipPath
       id="clip-path">
      <polygon
         id="polygon841"
         points="267.05,170.11 302.05,135.11 302.05,170.11 "
         class="cls-1"
         style="fill:none" />
    </clipPath>
    <clipPath
       id="clip-path-2">
      <polygon
         id="polygon844"
         points="267.05,213.06 302.05,178.06 302.05,213.06 "
         class="cls-1"
         style="fill:none" />
    </clipPath>
    <clipPath
       id="clip-path-3">
      <polygon
         id="polygon847"
         points="267.05,256.02 302.05,221.02 302.05,256.02 "
         class="cls-1"
         style="fill:none" />
    </clipPath>
    <clipPath
       id="clip-path-4">
      <polygon
         id="polygon850"
         points="267.05,298.98 302.05,263.98 302.05,298.98 "
         class="cls-1"
         style="fill:none" />
    </clipPath>
    <clipPath
       id="clip-path-5">
      <rect
         id="rect853"
         height="35"
         width="35"
         y="135.11"
         x="69.260002"
         class="cls-1"
         style="fill:none" />
    </clipPath>
    <clipPath
       id="clip-path-6">
      <rect
         id="rect856"
         height="35"
         width="35"
         y="221.02"
         x="69.260002"
         class="cls-1"
         style="fill:none" />
    </clipPath>
  </defs>
  <rect
     style="opacity:1;fill:#000000;fill-opacity:1;stroke:none;stroke-width:2.62139225;stroke-linecap:round;stroke-miterlimit:4;stroke-dasharray:none;stroke-dashoffset:0;stroke-opacity:1"
     id="rect8443"
     width="320"
     height="480"
     x="-320"
     y="1.9594349e-14"
     transform="rotate(-90)" />
  <text
     xml:space="preserve"
     style="font-style:normal;font-variant:normal;font-weight:normal;font-stretch:normal;font-size:40px;line-height:1.25;font-family:Z003;-inkscape-font-specification:Z003;letter-spacing:0px;word-spacing:0px;fill:#000000;fill-opacity:1;stroke:none"
     x="2067.5513"
     y="347.05334"
     id="text4643"><tspan
       sodipodi:role="line"
       id="tspan4641"
       x="2067.5513"
       y="379.13336" /></text>
  <flowRoot
     xml:space="preserve"
     id="flowRoot5152"
     style="font-style:normal;font-variant:normal;font-weight:normal;font-stretch:normal;font-size:40px;line-height:1.25;font-family:Z003;-inkscape-font-specification:Z003;letter-spacing:0px;word-spacing:0px;fill:#000000;fill-opacity:1;stroke:none"
     transform="translate(-546.41937,-425.22607)"><flowRegion
       id="flowRegion5154"><rect
         id="rect5156"
         width="783.01678"
         height="379.03003"
         x="1974.6997"
         y="731.38593" /></flowRegion><flowPara
       id="flowPara5158" /></flowRoot>  <g
     id="layer1"
     transform="matrix(0.66435157,-0.32718541,0.32718541,0.66435157,256.35649,220.90494)">
    <g
       id="g2424"
       transform="matrix(0.8746356,0,0,0.8746356,-119.75605,57.242615)">
      <g
         transform="matrix(1.0494249,0,0,1.0494249,359.29465,-73.791783)"
         id="g840">
        <path
           inkscape:connector-curvature="0"
           id="path823"
           d="m -24.609804,34.670627 -0.001,10e-4 c -1.30105,0.04125 -2.70187,0.522842 -4.29148,1.776432 -3.89624,-1.502556 -7.67619,-2.024626 -11.05555,1.034851 -5.21837,-0.676816 -6.91475,0.72015 -8.19984,2.351133 -1.14563,-0.02366 -8.57168,-1.178051 -11.97784,3.902426 -8.55834,-1.012469 -11.262851,5.033312 -8.19786,10.672428 -1.74839,2.705699 -3.559421,5.379845 0.52829,10.539117 -1.44583,2.872739 -0.54945,5.989249 2.85671,9.761009 -0.89823,4.03964 0.86792,6.88913 4.03771,9.11027 -0.3792,3.5326 1.79687,6.11517 3.85799,7.82164 l -30.821471,54.122457 30.822451,-54.120487 c 1.16322,0.96284 2.29053,1.64885 2.90016,2.06181 0.64924,3.22021 2.002,6.2603 8.46842,7.940127 1.06684,4.79998 4.9524,5.62875 8.71628,6.63571 -12.43883,7.2307 -23.1049,16.74377 -23.03241,40.08577 l -1.82285,3.24972 c -14.262851,8.67338 -27.095351,36.55195 -7.02871,59.21083 1.31031,7.09282 3.50938,12.18723 5.46656,17.82556 2.9271,22.72033 22.03159,33.35894 27.0711,34.61724 7.38356,5.62414 15.24794,10.96062 25.8911,14.69928 10.03095014,10.34611 20.899091,14.28985 31.826702,14.28355 0.16073,0 22.28,-3.93665 32.31253,-14.28355 10.64159,-3.73866 18.50596,-9.07514 25.8911,-14.69928 5.03793,-1.2583 24.142022,-11.89691 27.069132,-34.61724 1.95718,-5.63833 4.15547,-10.73274 5.46656,-17.82556 20.06506,-22.66124 7.23434,-50.54042 -7.02773,-59.21379 l -1.82581,-3.2507 c 0.0725,-23.33966 -10.594552,-32.85254 -23.033372,-40.08482 3.76308,-1.00695 7.65101,-1.83572 8.71627,-6.6357 6.46643,-1.680617 7.81997,-4.719917 8.46842,-7.940127 1.69087,-1.14485 7.351852,-4.3582 6.760132,-9.88543 3.16821,-2.22113 4.93573,-5.07141 4.03672,-9.11027 3.40695,-3.77175 4.30253,-6.88846 2.85671,-9.761989 4.08928,-5.15612 2.2753,-7.829468 0.52928,-10.535167 3.06341,-5.639116 0.35968,-11.686672 -8.20182,-10.673414 -3.40379,-5.080482 -10.829062,-3.927053 -11.977832,-3.903412 -1.28431,-1.630199 -2.9795,-3.026968 -8.19787,-2.350147 -3.37937,-3.059477 -7.15872,-2.538196 -11.05654,-1.034856 -4.62822,-3.651989 -7.69052,-0.724872 -11.18887,0.382146 -5.60365,-1.831116 -6.88558,0.677489 -9.63855,1.699412 -6.11108,-1.291391 -7.9679,1.519711 -10.89659,4.487001 l -3.4087,-0.06813 C 27.840788,48.379366 23.261808,59.440338 21.638698,65.126725 20.015598,59.43955 15.446887,48.378578 6.2314262,42.947477 l -3.40771,0.06813 c -2.93341006,-2.96729 -4.79045,-5.778392 -10.901521,-4.487001 -2.7537692,-1.021923 -4.0301692,-3.530528 -9.6385592,-1.699412 -2.29598,-0.726455 -4.40755,-2.235795 -6.89343,-2.158579 z m 92.734972,6.52511 c -1.27957,1.582134 -3.06862,3.127457 -1.17211,4.94518 2.6143,-1.656985 5.24453,-3.312817 11.45252,-4.489963 -1.39934,1.582923 -4.29166,3.16674 -2.53776,4.749663 3.28166,-1.272483 6.91355,-2.196507 10.93113,-2.732288 -1.92408,1.606559 -3.52882,3.180669 -1.9522,4.424789 3.51253,-1.096779 8.35058,-2.574936 13.07886,-1.302453 l -2.99298,3.059138 c -0.33171,0.408926 7.001412,0.318347 11.841572,0.390043 -1.76651,2.49139 -3.56745,4.896073 -4.61932,9.174456 0.47984,0.493235 2.87938,0.219829 5.1407,0 -2.31884,4.956777 -6.34745,6.208121 -7.28743,8.329191 1.41667,1.0889 3.3821,0.80483 5.53074,0.0642 -1.66959,3.49204 -5.17179,5.8851 -7.938152,8.71923 0.69967,0.50427 1.92082,0.80427 4.814832,0.45522 -2.556002,2.75849 -5.643942,5.28049 -9.303812,7.54811 0.64766,0.76034 2.87591,0.72967 4.94419,0.78009 -3.31555,3.29428 -7.58241,5.00312 -11.58187,7.15807 1.99342,1.38279 3.41899,1.05969 4.94518,1.04078 -2.82783,2.35902 -7.63813,3.58659 -12.10325,5.01035 0.84938,1.33946 1.69801,1.705917 3.51337,2.082547 -4.72513,2.65449 -11.49362,1.44067 -13.40274,2.79746 0.46014,1.33394 1.76014,2.20293 3.31785,2.92781 -7.60811,0.44832 -28.41494,-0.28133 -32.40338,-16.267347 7.78713,-8.68685 22.00205,-18.88141 46.44895,-31.488989 -19.02146,6.463724 -36.18404,15.078559 -50.54788,26.934839 -16.88976,-7.98316 -5.24724,-28.118061 2.99199,-36.112253 0.41839,2.11161 0.8913,3.445268 1.43182,3.839229 2.68286,-2.920018 4.87497,-5.909533 8.3292,-8.71924 0.011,1.649897 -0.82017,3.441138 1.23629,4.750654 1.8516,-2.529212 4.35483,-4.786444 7.67747,-6.701864 -1.60025,2.801824 -0.27563,3.653444 0.58556,4.814832 2.53788,-2.209313 4.94965,-4.448056 9.63066,-6.181474 z m -92.404172,0.002 c 4.68101,1.733413 7.09179,3.972161 9.62967,6.181474 0.8604,-1.161387 2.18661,-2.013993 0.58556,-4.815823 3.32343,1.915421 5.8258692,4.173643 7.6774692,6.70285 2.056471,-1.309516 1.225271,-3.099968 1.236301,-4.750648 3.45422,2.809706 5.64633994,5.80001 8.32919,8.719235 0.54051,-0.393957 1.01343,-1.728403 1.43181,-3.83923 8.2392308,7.993408 19.8827418,28.129098 2.99298,36.112258 C -6.7619748,73.659483 -23.918494,65.044781 -42.930074,58.581922 -18.493054,71.182873 -4.2835638,81.377303 3.5020862,90.060043 -0.48634386,106.04606 -21.293174,106.77572 -28.901284,106.32739 c 1.55771,-0.72488 2.85791,-1.59386 3.31884,-2.9278 -1.90912,-1.35679 -8.6788,-0.14298 -13.40472,-2.79747 1.81536,-0.37662 2.66479,-0.743077 3.51337,-2.082537 -4.46433,-1.42376 -9.27364,-2.65133 -12.10226,-5.01035 1.52619,0.0189 2.95175,0.34201 4.94518,-1.04078 -3.99867,-2.15495 -8.26632,-3.8638 -11.58188,-7.15807 2.0675,-0.0504 4.29673,-0.0198 4.94518,-0.78009 -3.65986,-2.26762 -6.74879,-4.78962 -9.30479,-7.54811 2.89322,0.34904 4.11615,0.049 4.81582,-0.45522 -2.76716,-2.83413 -6.26955,-5.2272 -7.93915,-8.71924 2.14786,0.74064 4.11407,1.02472 5.53075,-0.0642 -0.93999,-2.12107 -4.9678,-3.372418 -7.28743,-8.329196 2.26211,0.219829 4.66086,0.493236 5.1407,0 -1.04951,-4.276805 -2.85084,-6.682075 -4.61735,-9.173465 4.84017,-0.0717 12.17427,0.01886 11.84256,-0.390048 l -2.99397,-3.057141 c 4.72829,-1.273272 9.56633,0.203702 13.07886,1.300477 1.57662,-1.244115 -0.0281,-2.81724 -1.9522,-4.423803 4.01837,0.536574 7.64868,1.459809 10.93114,2.732292 1.75311,-1.582923 -1.13842,-3.16674 -2.53776,-4.749663 6.20798,1.177146 8.83801,2.832973 11.45153,4.489963 1.89651,-1.817723 0.10943,-3.363046 -1.17014,-4.94518 z m 44.562902,65.847513 c 0.42034,-0.009 0.84118,-0.009 1.26296,0.002 11.97632,-0.13158 26.80613,8.93579 26.74624,17.47995 -0.052,7.54114 -10.41448,13.64594 -26.65342,13.53012 -15.9025018,-0.18989 -26.6114518,-7.67159 -26.5744218,-14.97872 0.0305,-5.82622 12.18805,-15.73897 25.2186418,-16.03332 z m -39.492312,5.08536 c 2.67738,-0.0499 5.44497,0.15854 8.27192,0.63592 8.3322102,1.40013 -39.92854,43.53994 -40.67233,34.13932 -0.66461,-21.45495 13.65875,-34.42621 32.40041,-34.77524 z m 79.025132,0.71985 c 18.74089,0.34898 33.06403,13.31793 32.39942,34.77426 -0.7438,9.40141 -49.00276,-32.7392 -40.67134,-34.13932 2.82674,-0.47728 5.59465,-0.68479 8.27192,-0.63494 z m -9.22581,26.15969 c 9.74461,-0.10885 20.03863,5.38515 26.52703,15.20386 9.43844,14.28255 7.25112,32.30694 -4.88594,40.25858 -12.13705,7.95243 -29.6273,2.82016 -39.06575,-11.46239 -9.43765,-14.28176 -7.25033,-32.30694 4.88594,-40.25858 3.79307,-2.48489 8.10936,-3.69199 12.53872,-3.74147 z m -57.8343228,1.43872 c 4.429281,0.0495 8.744901,1.25658 12.537731,3.74147 12.1370508,7.95244 14.3253618,25.97682 4.8869208,40.25859 -9.43844086,14.28254 -26.928681,19.41502 -39.065741,11.46337 -12.13705,-7.95243 -14.32457,-25.97682 -4.88692,-40.25858 6.48893,-9.81925 16.78361,-15.31365 26.5280092,-15.20485 z M 94.902018,156.31828 c 0.36759,-0.006 0.75565,0.0443 1.16519,0.15404 21.743322,12.41597 17.966882,40.04376 6.238752,49.47747 -10.328882,4.58816 -18.799422,-49.44279 -7.403942,-49.63151 z m -149.102912,0.71985 c 11.39414,0.18787 2.92592,54.21572 -7.40296,49.62757 -11.728131,-9.43293 -15.505561,-37.05775 6.23776,-49.47451 0.40949,-0.10977 0.79764,-0.15912 1.1652,-0.15306 z m 76.289862,37.15995 c 16.17749,-0.0788 29.36007,11.95008 29.44595,26.86769 v 0.28439 c 0.0851,14.91761 -12.96117,27.07506 -29.13786,27.15307 -16.1774818,0.0788 -29.3608528,-11.95108 -29.4459428,-26.86868 a 17.113528,17.113528 0 0 1 0,-0.28439 c -0.0851,-14.91682 12.960371,-27.07329 29.1378528,-27.15208 z m 64.89661,10.19548 c 2.28804,-0.0597 4.42903,0.58293 6.36021,2.07663 5.20024,5.18133 8.250412,24.69387 -0.85317,36.37787 -12.53731,17.39639 -29.51077,18.07365 -35.83379,13.22796 -6.61219,-6.23713 -1.56425,-25.60173 7.50072,-36.2189 v -0.004 c 7.77909,-8.78369 15.96193,-15.28059 22.82603,-15.45961 z m -132.407002,4.13547 c 7.5502,-0.15474 16.81727,5.81175 24.32894,14.52745 h -0.001 c 8.3779,10.0932 12.1978292,27.82629 5.20587,33.05411 -6.61456,3.99079 -22.67799,2.34659 -34.09489,-14.05545 -7.7003,-13.76331 -6.70814,-27.76849 -1.30146,-31.88298 1.76855,-1.07723 3.74846,-1.5998 5.86253,-1.64313 z m 70.041242,48.32412 c 11.43098,0.0704 25.31057,4.18667 25.34011,9.53981 0.1954,5.54378 -14.3201,18.07042 -28.36863,17.82852 -14.5496618,0.62798 -28.8160628,-11.91785 -28.6293228,-16.26636 -0.21825,-6.37581 17.7151618,-11.3538 29.4094128,-11.06148 0.73547,-0.0321 1.48637,-0.0452 2.24843,-0.0405 z"
           style="fill:#0f0f0f;fill-opacity:1;stroke-width:0.78791565" />
      </g>
    </g>
  </g>
  <g
     id="g1017"
     transform="matrix(0.56132733,0,0,0.56132733,18.588693,330.21966)">
    <g
       id="g1022"
       transform="matrix(0.75619413,0,0,0.75619413,89.420169,-366.55153)">
      <path
         style="fill:#00ccff;fill-opacity:1"
         inkscape:connector-curvature="0"
         d="m 179.53,51.949 c -8.07,-0.013 -14.77,1.642 -17.36,2.545 l -2.67,14.401 c 0,0.053 13.28,-3.542 19.13,-3.33 9.68,0.348 10.58,3.702 10.41,8.229 0.16,0.265 -2.5,-4.091 -10.88,-4.237 -10.58,-0.182 -25.49,3.743 -25.47,19.701 -0.29,17.952 13.4,23.232 22.73,23.322 8.38,-0.15 12.32,-3.17 14.47,-4.79 2.83,-2.96 6.07,-5.93 9.15,-9.502 -2.92,5.312 -5.45,8.982 -8.09,11.782 v 2.38 l 12.75,-2.15 0.09,-34.641 C 203.66,70.756 206.6,51.994 179.53,51.948 Z M 177.7,82.11 c 5.29,0.072 11.35,2.676 11.35,8.944 0.03,5.7 -7.14,8.765 -11.8,8.717 -4.66,-0.049 -10.85,-3.666 -10.88,-9.223 0.09,-4.968 5.84,-8.566 11.33,-8.438 z m 34.49,-26.959 -0.09,57.369 14.85,-2.86 0.02,-32.527 c 0.01,-4.843 6.93,-10.503 15.6,-10.412 1.85,-3.333 5.31,-11.851 6.15,-13.789 -19.39,-0.046 -19.63,5.574 -23.01,8.338 -0.03,-5.274 -0.01,-8.439 -0.01,-8.439 l -13.51,2.322 z m 83.55,7.532 c -0.14,-0.068 -7.74,-8.89 -23.02,-8.959 -14.31,-0.238 -30.36,5.31 -30.62,29.308 0.13,21.098 15.42,29.348 30.7,29.508 16.36,0.17 22.86,-10.23 23.25,-10.49 -1.95,-1.69 -9.26,-8.931 -9.26,-8.931 0,0 -4.56,6.501 -13.42,6.583 -8.86,0.084 -16.56,-6.847 -16.67,-16.519 -0.11,-9.671 7.08,-14.911 16.74,-15.335 8.36,-0.001 13.18,5.397 13.18,5.397 z m 18.72,-27.611 -14.02,3.295 0.1,74.723 13.81,-2.49 0.16,-35.166 c 0.03,-3.687 5.33,-9.349 14.19,-9.17 8.47,0.088 10.36,5.644 10.34,6.346 l 0.24,40.71 13.62,-2.41 0.05,-43.164 c 0.09,-4.154 -9.1,-12.927 -23.87,-12.989 -7.01,0.012 -10.9,1.6 -12.88,2.772 -3.38,2.614 -7.25,5.119 -11.05,8.316 3.51,-4.514 6.46,-7.634 9.34,-9.955 L 314.46,35.074 Z M 640.41,101.71 H 615.42 L 611.48,113 h -16.06 l 22.95,-61.965 h 19.05 L 660.37,113 H 644.31 Z M 619.4,90.214 h 16.98 L 627.91,65.561 Z M 692.79,78.51 c 3.35,0 5.75,-0.622 7.2,-1.867 1.45,-1.246 2.18,-3.293 2.18,-6.143 0,-2.822 -0.73,-4.842 -2.18,-6.06 -1.45,-1.217 -3.85,-1.826 -7.2,-1.826 h -6.72 V 78.51 Z m -6.72,11.04 V 113 H 670.09 V 51.035 h 24.4 c 8.16,0 14.15,1.369 17.95,4.109 3.81,2.739 5.71,7.069 5.71,12.99 0,4.095 -0.99,7.457 -2.97,10.086 -1.98,2.628 -4.96,4.565 -8.94,5.81 2.18,0.498 4.14,1.626 5.87,3.383 1.73,1.757 3.48,4.42 5.25,7.989 L 726.03,113 h -17.01 l -7.56,-15.398 c -1.52,-3.099 -3.06,-5.216 -4.62,-6.35 -1.57,-1.134 -3.65,-1.702 -6.25,-1.702 z m 50.97,-38.515 h 20.34 l 14.11,33.161 14.19,-33.161 h 20.3 V 113 H 790.87 V 67.678 L 776.59,101.09 H 766.46 L 752.19,67.678 V 113 h -15.15 z"
         id="path1000" />
      <rect
         style="fill:#3f3f3f"
         y="13"
         x="571"
         height="139"
         width="2"
         id="rect1002" />
      <path
         style="fill:#00ccff;fill-opacity:1"
         inkscape:connector-curvature="0"
         d="m 364.76,37.017 6.38,-1.583 -0.77,75.336 -6.48,1.09 z m 16.97,22.482 5.61,-2.467 -0.72,54.018 -5.4,1.11 z m -1.05,-19.478 4.55,-3.647 3.67,4.129 -4.55,3.744 z m 17.12,18.495 6.38,-1.29 -0.13,11.293 c -0.01,0.485 3.67,-12.616 20.51,-12.324 16.36,0.09 18.86,12.675 18.73,15.496 l -0.37,39.709 -5.59,1.2 0.53,-39.219 c 0.08,-1.146 -2.4,-10.832 -13.96,-10.868 -11.55,-0.034 -19.68,8.342 -19.74,13.693 l -0.4,34.554 -6.48,1.68 0.52,-53.925 z m 100.63,53.164 -6.38,1.29 0.13,-11.29 c 0.01,-0.48 -3.67,12.62 -20.51,12.33 -16.36,-0.1 -18.85,-12.68 -18.73,-15.502 l 0.37,-39.711 6.78,-1.356 -0.46,39.224 c -0.01,1.072 1.14,10.985 12.7,11.025 11.55,0.03 19.75,-6.92 19.95,-17.385 l 0.36,-30.948 6.32,-1.596 z m 13.23,-53.61 -4.51,3.47 16.78,22.245 -18.6,25.705 4.68,3.49 17.49,-23.872 17.35,24.432 4.43,-3.47 -18.6,-26.122 15.43,-21.126 -4.59,-3.911 -14.07,19.549 z M 83.81,0.625 C 76.413,18.759 71.952,30.622 63.717,48.218 68.766,53.57 74.963,59.802 85.028,66.842 74.208,62.389 66.828,57.918 61.311,53.28 50.772,75.272 34.259,106.6 0.75,166.81 c 26.338,-15.2 46.753,-24.58 65.78,-28.15 -0.817,-3.52 -1.281,-7.32 -1.25,-11.28 l 0.031,-0.85 c 0.418,-16.87 9.195,-29.845 19.593,-28.964 10.398,0.881 18.476,15.284 18.056,32.154 -0.07,3.18 -0.43,6.23 -1.06,9.06 18.82,3.68 39.02,13.03 65,28.03 -5.12,-9.43 -9.7,-17.93 -14.06,-26.03 -6.88,-5.33 -14.05,-12.27 -28.69,-19.78 10.06,2.62 17.26,5.63 22.88,9 C 102.63,47.332 99.039,36.349 83.809,0.63 L 83.81,0.62481 Z m 83.92,151.36 v -4.54 h -1.7 v -0.62 h 4.09 v 0.62 h -1.71 v 4.54 z m 3.1,0 v -5.16 h 1.03 l 1.22,3.66 c 0.12,0.34 0.2,0.6 0.25,0.76 0.06,-0.18 0.15,-0.46 0.28,-0.82 l 1.23,-3.6 h 0.92 v 5.16 h -0.66 v -4.32 l -1.5,4.32 h -0.61 l -1.5,-4.38 v 4.38 z"
         id="path1004" />
    </g>
  </g>
</svg>
